Coordinates
version=1
nRows=21
nColumns=12
inDegrees=yes

Units are S.I. units (second, meters, Newtons, ...)
Angles are in degrees

endheader
time	SC_y	SC_z	SC_x	AC_y	AC_z	AC_x	GH_y	GH_z	GH_yy	EL_x	PS_y
       0.0              -24.89          17.79          23.43          60.69         -7.386          13.16          38.86          3.131          132.3          119.7          62.86
 0.0007456              -24.89          17.79          23.44          60.69         -7.386          13.16          38.86          3.128          132.3          119.7          62.87
  0.001491               -24.9          17.79          23.45          60.69         -7.385          13.16          38.86          3.125          132.3          119.7          62.87
  0.002237               -24.9          17.79          23.45          60.69         -7.385          13.16          38.86          3.121          132.2          119.7          62.88
  0.002982               -24.9          17.79          23.46          60.69         -7.385          13.16          38.86          3.117          132.2          119.7          62.89
  0.003728               -24.9          17.79          23.47          60.69         -7.384          13.16          38.85          3.113          132.2          119.7           62.9
  0.004474              -24.91          17.79          23.47          60.69         -7.384          13.16          38.85          3.109          132.2          119.6          62.91
  0.005219              -24.91          17.79          23.48           60.7         -7.384          13.16          38.85          3.104          132.1          119.6          62.92
  0.005965              -24.91          17.79          23.49           60.7         -7.383          13.16          38.85          3.099          132.1          119.6          62.93
  0.006711              -24.92           17.8           23.5           60.7         -7.383          13.16          38.85          3.093          132.1          119.6          62.94
  0.007456              -24.92           17.8          23.51           60.7         -7.382          13.16          38.84          3.087          132.0          119.5          62.95
  0.008202              -24.92           17.8          23.52           60.7         -7.382          13.16          38.84          3.081          132.0          119.5          62.96
  0.008947              -24.93           17.8          23.54           60.7         -7.381          13.16          38.84          3.074          131.9          119.5          62.98
  0.009693              -24.93           17.8          23.55           60.7          -7.38          13.16          38.84          3.067          131.9          119.5          62.99
   0.01044              -24.94           17.8          23.56           60.7          -7.38          13.17          38.83          3.059          131.8          119.4          63.01
   0.01118              -24.94           17.8          23.58           60.7         -7.379          13.17          38.83           3.05          131.8          119.4          63.02
   0.01193              -24.95           17.8           23.6          60.71         -7.378          13.17          38.83          3.041          131.7          119.3          63.04
   0.01268              -24.96          17.81          23.61          60.71         -7.377          13.17          38.82          3.031          131.7          119.3          63.06
   0.01342              -24.96          17.81          23.63          60.71         -7.377          13.17          38.82           3.02          131.6          119.2          63.08
   0.01417              -24.97          17.81          23.66          60.71         -7.376          13.17          38.81          3.008          131.5          119.2          63.11
   0.01491              -24.98          17.81          23.68          60.71         -7.374          13.17          38.81          2.994          131.4          119.1          63.14
